Coordinates
version=1
nRows=15
nColumns=27
inDegrees=yes

Units are S.I. units (second, meters, Newtons, ...)
If the header above contains a line with 'inDegrees', this indicates whether rotational values are in degrees (yes) or radians (no).

endheader
time	pelvis_rotation	pelvis_tilt	pelvis_list	pelvis_tx	pelvis_ty	pelvis_tz	hip_flexion_r	hip_adduction_r	hip_rotation_r	knee_angle_r	knee_rotation_r	knee_adduction_r	knee_angle_r_beta	ankle_angle_r	subtalar_angle_r	mtp_angle_r	hip_flexion_l	hip_adduction_l	hip_rotation_l	knee_angle_l	knee_rotation_l	knee_adduction_l	knee_angle_l_beta	ankle_angle_l	subtalar_angle_l	mtp_angle_l
      4.64000000	      3.02278000	    -32.33629001	      3.80998305	      0.04777435	      0.41927880	     -1.15595933	    137.48130084	    -46.85243991	     22.31381905	    114.17987107	     -9.91891598	      9.89702447	      1.99281469	     22.31046810	     12.66255683	      0.00000000	    130.55551189	    -42.00636738	     15.41874360	    107.20908221	     -9.92422959	     -9.91021888	      1.87115147	     19.26948415	     29.36197905	      0.00000000
      4.64500000	      2.99051927	    -32.40894612	      3.55972488	      0.04731158	      0.41971615	     -1.15605279	    137.21306461	    -46.96372845	     21.92532708	    114.08908380	     -9.91867879	      9.89645227	      1.99123015	     22.19302150	     12.58591856	      0.00000000	    130.80007201	    -41.82271476	     15.64757011	    107.18387611	     -9.92382568	     -9.91002427	      1.87071154	     19.23444996	     29.31261357	      0.00000000
      4.65000000	      3.08340080	    -32.46033178	      3.74739352	      0.04682859	      0.42006274	     -1.15611093	    137.39524444	    -46.82875215	     22.10342021	    114.05072691	     -9.91831129	      9.89592920	      1.99056070	     22.15603744	     12.42027704	      0.00000000	    130.68914473	    -41.85856460	     15.34311060	    107.11597888	     -9.92351906	     -9.90979654	      1.86952651	     19.07514498	     29.23520377	      0.00000000
      4.65500000	      3.33151635	    -32.47492467	      4.09633391	      0.04636388	      0.42049733	     -1.15614809	    137.75255531	    -46.74143398	     22.53380505	    114.02882303	     -9.91789037	      9.89533755	      1.99017840	     22.03769843	     12.29892798	      0.00000000	    130.33607614	    -41.83430162	     14.79472636	    107.01318510	     -9.92326527	     -9.90949371	      1.86773242	     19.03232901	     29.15954977	      0.00000000
      4.66000000	      3.23133922	    -32.58043978	      3.83031543	      0.04579371	      0.42109259	     -1.15623684	    137.43384298	    -46.76830944	     22.06334904	    113.91141211	     -9.91748188	      9.89480936	      1.98812920	     21.96029371	     12.13201568	      0.00000000	    130.63879538	    -41.73167532	     15.03960813	    106.96805532	     -9.92262894	     -9.90925104	      1.86694476	     18.91046821	     29.13354593	      0.00000000
      4.66500000	      3.30446847	    -32.65264781	      3.91232673	      0.04523044	      0.42171024	     -1.15630652	    137.48214144	    -46.70549947	     22.06695252	    113.82900981	     -9.91699811	      9.89435417	      1.98669101	     21.85173960	     12.00312177	      0.00000000	    130.58175633	    -41.70377574	     14.82600143	    106.87842584	     -9.92210928	     -9.90884090	      1.86538043	     18.80198634	     29.07668381	      0.00000000
      4.67000000	      3.32909662	    -32.75338306	      3.73034250	      0.04462946	      0.42241523	     -1.15641959	    137.28348947	    -46.81712686	     21.73635517	    113.70522537	     -9.91650331	      9.89355658	      1.98453056	     21.76136623	     11.87976671	      0.00000000	    130.78136811	    -41.52068135	     14.92044843	    106.81120175	     -9.92146088	     -9.90855166	      1.86420715	     18.66917226	     28.99245918	      0.00000000
      4.67500000	      3.48200183	    -32.82712021	      4.00899792	      0.04402844	      0.42310585	     -1.15646497	    137.53377539	    -46.66394898	     21.98844544	    113.63631719	     -9.91595675	      9.89308825	      1.98332788	     21.63030499	     11.71462408	      0.00000000	    130.53409292	    -41.55374439	     14.45513169	    106.68491792	     -9.92088007	     -9.90800654	      1.86200308	     18.57487606	     28.94832820	      0.00000000
      4.68000000	      3.52355367	    -32.91119892	      3.97251175	      0.04332781	      0.42397402	     -1.15654189	    137.41831790	    -46.65521674	     21.79887137	    113.50512232	     -9.91527786	      9.89239036	      1.98103810	     21.49722760	     11.55956366	      0.00000000	    130.55176204	    -41.46077919	     14.35067177	    106.57002634	     -9.92020078	     -9.90781432	      1.85999784	     18.43821549	     28.87820095	      0.00000000
      4.68500000	      3.60410996	    -33.01439155	      3.91122173	      0.04265109	      0.42487141	     -1.15664724	    137.31446451	    -46.72169556	     21.59386032	    113.37133623	     -9.91474833	      9.89152956	      1.97870309	     21.42382252	     11.41607214	      0.00000000	    130.60663140	    -41.30112112	     14.27457725	    106.45970105	     -9.91938692	     -9.90732074	      1.85807230	     18.30137114	     28.83077525	      0.00000000
      4.69000000	      3.69130576	    -33.10577013	      3.95789652	      0.04190667	      0.42581572	     -1.15675193	    137.29672263	    -46.68871938	     21.51314240	    113.23691447	     -9.91408665	      9.89088474	      1.97635699	     21.28335898	     11.25819855	      0.00000000	    130.54550330	    -41.21362691	     14.05529739	    106.32716679	     -9.91855529	     -9.90674150	      1.85575914	     18.17698515	     28.74360438	      0.00000000
      4.69500000	      3.77438053	    -33.20841174	      3.99637121	      0.04113992	      0.42682438	     -1.15686015	    137.26166668	    -46.65911401	     21.40227367	    113.09173111	     -9.91336605	      9.89006185	      1.97382306	     21.15511954	     11.08415399	      0.00000000	    130.49489466	    -41.12350338	     13.83592672	    106.19147725	     -9.91766908	     -9.90633869	      1.85339092	     18.04608354	     28.63856918	      0.00000000
      4.70000000	      3.82058684	    -33.33794950	      4.02205868	      0.04033692	      0.42789431	     -1.15696696	    137.21604350	    -46.59034323	     21.25227533	    112.93588894	     -9.91254082	      9.88908486	      1.97110311	     21.01164081	     10.90301880	      0.00000000	    130.48278898	    -41.06621740	     13.63715814	    106.04775663	     -9.91677192	     -9.90583013	      1.85088252	     17.89413922	     28.54078131	      0.00000000
      4.70500000	      3.86832619	    -33.44533435	      4.13196437	      0.03943428	      0.42910497	     -1.15706836	    137.17778881	    -46.43856377	     21.17873269	    112.76277865	     -9.91190089	      9.88899797	      1.96808176	     20.91588602	     10.76223852	      0.00000000	    130.34023512	    -41.06321548	     13.31685913	    105.86583491	     -9.91586488	     -9.90528735	      1.84770738	     17.74462629	     28.51240004	      0.00000000
      4.71000000	      3.99748345	    -33.54253425	      4.16453459	      0.03867870	      0.43021929	     -1.15719701	    137.15603683	    -46.48144127	     21.06481996	    112.61568571	     -9.91077027	      9.88712534	      1.96551451	     20.71794792	     10.55957945	      0.00000000	    130.26759583	    -40.90857519	     13.08510841	    105.72823077	     -9.91483444	     -9.90446386	      1.84530574	     17.65521654	     28.32818099	      0.00000000
